HIERARCHY
ROOT newVegas:Hips
{
	OFFSET 0.000000 96.479958 0.000000
	CHANNELS 6 Xposition Yposition Zposition Xrotation Yrotation Zrotation
	JOINT newVegas:Pelvis
	{
		OFFSET 0.000000 0.000000 0.000000
		CHANNELS 3 Xrotation Yrotation Zrotation
		JOINT newVegas:LeftUpLeg
		{
			OFFSET 18.735201 -5.666702 -4.541200
			CHANNELS 3 Xrotation Yrotation Zrotation
			JOINT newVegas:LeftLeg
			{
				OFFSET -0.021200 -31.938179 0.493100
				CHANNELS 3 Xrotation Yrotation Zrotation
				JOINT newVegas:LeftFoot
				{
					OFFSET 0.021200 -31.938179 -4.336299
					CHANNELS 3 Xrotation Yrotation Zrotation
					JOINT newVegas:LeftToeBase
					{
						OFFSET 0.943001 -26.722000 15.023500
						CHANNELS 3 Xrotation Yrotation Zrotation
						End Site
						{
							OFFSET 0.000000 30.670183 0.000000
						}
					}
				}
				JOINT newVegas:Left_PantLeg
				{
					OFFSET 0.663870 -9.044666 -1.108900
					CHANNELS 3 Xrotation Yrotation Zrotation
					End Site
					{
						OFFSET 1.415995 20.635357 0.000000
					}
				}
			}
		}
		JOINT newVegas:RightUpLeg
		{
			OFFSET -18.735201 -5.666702 -4.541200
			CHANNELS 3 Xrotation Yrotation Zrotation
			JOINT newVegas:RightLeg
			{
				OFFSET 0.018946 -31.938133 0.493100
				CHANNELS 3 Xrotation Yrotation Zrotation
				JOINT newVegas:RightFoot
				{
					OFFSET -0.018946 -31.938126 -4.336299
					CHANNELS 3 Xrotation Yrotation Zrotation
					JOINT newVegas:RightToeBase
					{
						OFFSET -0.943001 -26.722004 15.023500
						CHANNELS 3 Xrotation Yrotation Zrotation
						End Site
						{
							OFFSET 0.000000 30.670187 0.000000
						}
					}
				}
				JOINT newVegas:Right_PantLeg
				{
					OFFSET -0.661674 -9.044716 -1.108900
					CHANNELS 3 Xrotation Yrotation Zrotation
					End Site
					{
						OFFSET -1.415958 20.635269 0.000000
					}
				}
			}
		}
	}
	JOINT newVegas:Spine
	{
		OFFSET 0.000000 10.199997 -0.299500
		CHANNELS 3 Xrotation Yrotation Zrotation
		JOINT newVegas:Spine1
		{
			OFFSET 0.000000 11.900002 -1.516600
			CHANNELS 3 Xrotation Yrotation Zrotation
			JOINT newVegas:Spine2
			{
				OFFSET 0.000000 13.600006 -2.842500
				CHANNELS 3 Xrotation Yrotation Zrotation
				JOINT newVegas:Neck
				{
					OFFSET 0.000000 9.624100 -2.890100
					CHANNELS 3 Xrotation Yrotation Zrotation
					JOINT newVegas:Head
					{
						OFFSET 0.000000 14.068802 -1.351900
						CHANNELS 3 Xrotation Yrotation Zrotation
						JOINT newVegas:Hair_Back
						{
							OFFSET 0.000000 3.231903 -17.524799
							CHANNELS 3 Xrotation Yrotation Zrotation
							End Site
							{
								OFFSET 0.000000 19.849884 0.000000
							}
						}
						JOINT newVegas:Hair_Front
						{
							OFFSET 0.000000 31.260406 4.573800
							CHANNELS 3 Xrotation Yrotation Zrotation
							JOINT newVegas:Hair_Front1
							{
								OFFSET 0.000000 2.284103 11.993300
								CHANNELS 3 Xrotation Yrotation Zrotation
								JOINT newVegas:Hair_Front2
								{
									OFFSET 0.000000 2.284103 11.993300
									CHANNELS 3 Xrotation Yrotation Zrotation
									End Site
									{
										OFFSET 0.000000 12.208862 0.000000
									}
								}
							}
						}
						JOINT newVegas:Jowel
						{
							OFFSET 0.000000 -7.458206 6.864100
							CHANNELS 3 Xrotation Yrotation Zrotation
							End Site
							{
								OFFSET 0.000000 19.849884 0.000000
							}
						}
					}
				}
				JOINT newVegas:LeftShoulder
				{
					OFFSET 15.263000 10.923401 -0.547700
					CHANNELS 3 Xrotation Yrotation Zrotation
					JOINT newVegas:LeftArm
					{
						OFFSET 25.438599 -2.830597 -13.032500
						CHANNELS 3 Xrotation Yrotation Zrotation
						JOINT newVegas:LeftForeArm
						{
							OFFSET 29.960503 0.000000 0.000000
							CHANNELS 3 Xrotation Yrotation Zrotation
							JOINT newVegas:LeftHand
							{
								OFFSET 27.849251 0.000000 0.000000
								CHANNELS 3 Xrotation Yrotation Zrotation
								JOINT newVegas:LeftHandThumb1
								{
									OFFSET 4.487587 -3.305161 6.305391
									CHANNELS 3 Xrotation Yrotation Zrotation
									JOINT newVegas:LeftHandThumb2
									{
										OFFSET 5.480453 -3.164139 3.164143
										CHANNELS 3 Xrotation Yrotation Zrotation
										JOINT newVegas:LeftHandThumb3
										{
											OFFSET 5.159721 -2.978973 2.978967
											CHANNELS 3 Xrotation Yrotation Zrotation
											End Site
											{
												OFFSET 2.494507 5.926697 1.738678
											}
										}
									}
								}
								JOINT newVegas:LeftHandIndex1
								{
									OFFSET 18.578728 -0.527832 5.208049
									CHANNELS 3 Xrotation Yrotation Zrotation
									JOINT newVegas:LeftHandIndex2
									{
										OFFSET 3.192009 0.000000 0.000000
										CHANNELS 3 Xrotation Yrotation Zrotation
										JOINT newVegas:LeftHandIndex3
										{
											OFFSET 3.835129 0.000000 0.000000
											CHANNELS 3 Xrotation Yrotation Zrotation
											End Site
											{
												OFFSET -0.034599 3.816971 0.371180
											}
										}
									}
								}
								JOINT newVegas:LeftHandMiddle1
								{
									OFFSET 18.476105 0.000000 0.000000
									CHANNELS 3 Xrotation Yrotation Zrotation
									JOINT newVegas:LeftHandMiddle2
									{
										OFFSET 3.324875 0.000000 0.000000
										CHANNELS 3 Xrotation Yrotation Zrotation
										JOINT newVegas:LeftHandMiddle3
										{
											OFFSET 4.596550 0.000000 0.000000
											CHANNELS 3 Xrotation Yrotation Zrotation
											End Site
											{
												OFFSET 0.057701 4.578827 0.399218
											}
										}
									}
								}
								JOINT newVegas:LeftHandRing1
								{
									OFFSET 17.732719 0.121887 -4.201567
									CHANNELS 3 Xrotation Yrotation Zrotation
									JOINT newVegas:LeftHandRing2
									{
										OFFSET 2.733170 0.000000 0.000000
										CHANNELS 3 Xrotation Yrotation Zrotation
										JOINT newVegas:LeftHandRing3
										{
											OFFSET 3.178268 0.000000 0.000000
											CHANNELS 3 Xrotation Yrotation Zrotation
											End Site
											{
												OFFSET 0.119102 3.170624 0.185394
											}
										}
									}
								}
								JOINT newVegas:LeftHandPinky1
								{
									OFFSET 15.989624 -0.606689 -7.535461
									CHANNELS 3 Xrotation Yrotation Zrotation
									JOINT newVegas:LeftHandPinky2
									{
										OFFSET 2.538986 0.000000 0.000000
										CHANNELS 3 Xrotation Yrotation Zrotation
										JOINT newVegas:LeftHandPinky3
										{
											OFFSET 2.593102 0.000000 0.000000
											CHANNELS 3 Xrotation Yrotation Zrotation
											End Site
											{
												OFFSET -0.150902 2.584198 0.152708
											}
										}
									}
								}
							}
							JOINT newVegas:Left_Sleeve
							{
								OFFSET 0.267448 -0.649796 0.577675
								CHANNELS 3 Xrotation Yrotation Zrotation
								End Site
								{
									OFFSET 0.000000 15.991241 0.000000
								}
							}
							JOINT newVegas:Left_CapeC
							{
								OFFSET 15.715958 -8.608795 -6.935905
								CHANNELS 3 Xrotation Yrotation Zrotation
								JOINT newVegas:Left_CapeC1
								{
									OFFSET 0.000000 -8.688499 0.000000
									CHANNELS 3 Xrotation Yrotation Zrotation
									End Site
									{
										OFFSET 0.000000 8.688499 0.000000
									}
								}
							}
						}
						JOINT newVegas:Left_CapeB
						{
							OFFSET 26.118385 -8.608795 -7.079235
							CHANNELS 3 Xrotation Yrotation Zrotation
							JOINT newVegas:Left_CapeB1
							{
								OFFSET 0.000000 -8.688499 0.000000
								CHANNELS 3 Xrotation Yrotation Zrotation
								End Site
								{
									OFFSET 0.000000 8.688499 0.000000
								}
							}
						}
						JOINT newVegas:Left_CapeA
						{
							OFFSET 5.115639 -8.608795 -10.395809
							CHANNELS 3 Xrotation Yrotation Zrotation
							JOINT newVegas:Left_CapeA1
							{
								OFFSET 0.000000 -8.688499 0.000000
								CHANNELS 3 Xrotation Yrotation Zrotation
								End Site
								{
									OFFSET 0.000000 8.688499 0.000000
								}
							}
						}
					}
				}
				JOINT newVegas:RightShoulder
				{
					OFFSET -15.263000 10.923401 -0.547700
					CHANNELS 3 Xrotation Yrotation Zrotation
					JOINT newVegas:RightArm
					{
						OFFSET -25.438599 -2.830597 -13.032500
						CHANNELS 3 Xrotation Yrotation Zrotation
						JOINT newVegas:RightForeArm
						{
							OFFSET -29.960503 0.000000 0.000000
							CHANNELS 3 Xrotation Yrotation Zrotation
							JOINT newVegas:RightHand
							{
								OFFSET -27.849251 0.000000 0.000000
								CHANNELS 3 Xrotation Yrotation Zrotation
								JOINT newVegas:RightHandThumb1
								{
									OFFSET -4.487587 -3.305161 6.305391
									CHANNELS 3 Xrotation Yrotation Zrotation
									JOINT newVegas:RightHandThumb2
									{
										OFFSET -5.480453 -3.164139 3.164143
										CHANNELS 3 Xrotation Yrotation Zrotation
										JOINT newVegas:RightHandThumb3
										{
											OFFSET -5.159721 -2.978973 2.978967
											CHANNELS 3 Xrotation Yrotation Zrotation
											End Site
											{
												OFFSET -2.494507 5.926697 1.738678
											}
										}
									}
								}
								JOINT newVegas:RightHandIndex1
								{
									OFFSET -18.578728 -0.527832 5.208049
									CHANNELS 3 Xrotation Yrotation Zrotation
									JOINT newVegas:RightHandIndex2
									{
										OFFSET -3.192009 0.000000 0.000000
										CHANNELS 3 Xrotation Yrotation Zrotation
										JOINT newVegas:RightHandIndex3
										{
											OFFSET -3.835129 0.000000 0.000000
											CHANNELS 3 Xrotation Yrotation Zrotation
											End Site
											{
												OFFSET 0.034599 3.816971 0.371180
											}
										}
									}
								}
								JOINT newVegas:RightHandMiddle1
								{
									OFFSET -18.476105 0.000000 0.000000
									CHANNELS 3 Xrotation Yrotation Zrotation
									JOINT newVegas:RightHandMiddle2
									{
										OFFSET -3.324875 0.000000 0.000000
										CHANNELS 3 Xrotation Yrotation Zrotation
										JOINT newVegas:RightHandMiddle3
										{
											OFFSET -4.596550 0.000000 0.000000
											CHANNELS 3 Xrotation Yrotation Zrotation
											End Site
											{
												OFFSET -0.057701 4.578827 0.399218
											}
										}
									}
								}
								JOINT newVegas:RightHandRing1
								{
									OFFSET -17.732719 0.121887 -4.201567
									CHANNELS 3 Xrotation Yrotation Zrotation
									JOINT newVegas:RightHandRing2
									{
										OFFSET -2.733170 0.000000 0.000000
										CHANNELS 3 Xrotation Yrotation Zrotation
										JOINT newVegas:RightHandRing3
										{
											OFFSET -3.178268 0.000000 0.000000
											CHANNELS 3 Xrotation Yrotation Zrotation
											End Site
											{
												OFFSET -0.119102 3.170624 0.185394
											}
										}
									}
								}
								JOINT newVegas:RightHandPinky1
								{
									OFFSET -15.989624 -0.606689 -7.535461
									CHANNELS 3 Xrotation Yrotation Zrotation
									JOINT newVegas:RightHandPinky2
									{
										OFFSET -2.538986 0.000000 0.000000
										CHANNELS 3 Xrotation Yrotation Zrotation
										JOINT newVegas:RightHandPinky3
										{
											OFFSET -2.593102 0.000000 0.000000
											CHANNELS 3 Xrotation Yrotation Zrotation
											End Site
											{
												OFFSET 0.150902 2.584198 0.152708
											}
										}
									}
								}
							}
							JOINT newVegas:Right_CapeC
							{
								OFFSET -15.715958 -8.608795 -6.935905
								CHANNELS 3 Xrotation Yrotation Zrotation
								JOINT newVegas:Right_CapeC1
								{
									OFFSET 0.000000 -8.688499 0.000000
									CHANNELS 3 Xrotation Yrotation Zrotation
									End Site
									{
										OFFSET 0.000000 8.688499 0.000000
									}
								}
							}
							JOINT newVegas:Right_Sleeve
							{
								OFFSET -0.267448 -0.649994 0.577675
								CHANNELS 3 Xrotation Yrotation Zrotation
								End Site
								{
									OFFSET 0.000000 15.991302 0.000000
								}
							}
						}
						JOINT newVegas:Right_CapeA
						{
							OFFSET -5.115540 -8.608795 -10.395824
							CHANNELS 3 Xrotation Yrotation Zrotation
							JOINT newVegas:Right_CapeA1
							{
								OFFSET 0.000000 -8.688499 0.000000
								CHANNELS 3 Xrotation Yrotation Zrotation
								End Site
								{
									OFFSET 0.000000 8.688499 0.000000
								}
							}
						}
						JOINT newVegas:Right_CapeB
						{
							OFFSET -26.118187 -8.608795 -7.079266
							CHANNELS 3 Xrotation Yrotation Zrotation
							JOINT newVegas:Right_CapeB1
							{
								OFFSET 0.000000 -8.688499 0.000000
								CHANNELS 3 Xrotation Yrotation Zrotation
								End Site
								{
									OFFSET 0.000000 8.688499 0.000000
								}
							}
						}
					}
				}
				JOINT newVegas:Left_Collar
				{
					OFFSET 18.625099 8.655502 8.828100
					CHANNELS 3 Xrotation Yrotation Zrotation
					JOINT newVegas:Left_Collar1
					{
						OFFSET 14.783401 10.540405 -1.259500
						CHANNELS 3 Xrotation Yrotation Zrotation
						End Site
						{
							OFFSET 0.000000 18.199875 0.000000
						}
					}
				}
				JOINT newVegas:Collar_Back
				{
					OFFSET 0.000000 15.630707 -20.132601
					CHANNELS 3 Xrotation Yrotation Zrotation
					End Site
					{
						OFFSET 0.000000 22.523010 0.000000
					}
				}
				JOINT newVegas:Left_Peck
				{
					OFFSET 17.239599 -5.132599 25.482599
					CHANNELS 3 Xrotation Yrotation Zrotation
					End Site
					{
						OFFSET 0.000000 22.523010 0.000000
					}
				}
				JOINT newVegas:Right_Peck
				{
					OFFSET -17.239599 -5.132202 25.482599
					CHANNELS 3 Xrotation Yrotation Zrotation
					End Site
					{
						OFFSET 0.000000 22.523010 0.000000
					}
				}
				JOINT newVegas:Right_Collar
				{
					OFFSET -18.625099 8.655792 8.828100
					CHANNELS 3 Xrotation Yrotation Zrotation
					JOINT newVegas:Right_Collar1
					{
						OFFSET -14.783401 10.539993 -1.259500
						CHANNELS 3 Xrotation Yrotation Zrotation
						End Site
						{
							OFFSET 0.000000 18.199631 0.000000
						}
					}
				}
			}
		}
		JOINT newVegas:Belly
		{
			OFFSET 0.000000 -6.540398 9.014299
			CHANNELS 3 Xrotation Yrotation Zrotation
			End Site
			{
				OFFSET 0.000000 11.566666 0.000000
			}
		}
	}
	JOINT newVegas:ElvisFacialAnim_Joint
	{
		OFFSET 1.000000 -95.330101 -8.825800
		CHANNELS 3 Xrotation Yrotation Zrotation
		End Site
		{
			OFFSET 0.000000 35.315800 0.000000
		}
	}
}
MOTION
Frames: 4
Frame Time: 0.033333
-1.037199 89.822197 2.753872 5.048376 -15.557692 0.315401 0.000000 -0.000000 -0.000000 -40.159494 2.834192 11.530191 35.805621 3.288171 1.875931 0.081510 0.100810 -7.446664 -0.000000 -0.000000 -0.000000 -0.000000 -0.000000 -0.000000 -13.854320 -12.640963 -15.741390 31.983365 -3.117392 2.426163 -20.500768 -2.941845 12.601905 0.000000 -0.000003 -0.000000 0.000002 0.000000 0.000000 23.100371 4.231291 -0.408273 3.699072 1.240284 -0.840910 3.692201 1.313814 -0.845957 -2.535796 0.264615 0.436108 -2.535794 0.264613 0.436105 0.000001 -0.000000 -0.000000 -2.535725 0.264613 0.436107 -2.535725 0.264611 0.436109 0.000004 0.000000 -0.000000 0.000001 -0.000000 -0.000000 7.812678 -20.949828 9.748520 -33.604333 -2.845696 -85.970792 0.000003 -43.061320 -4.065126 -16.829086 -10.657548 -13.131037 -7.471936 1.860685 -7.166924 30.986994 27.310532 -4.510875 0.000003 0.000000 0.000001 -4.707377 11.366699 -75.214453 -0.816407 3.073985 -46.874615 -0.000001 -0.000002 0.000001 1.623365 16.580923 -84.691306 0.018003 0.022023 -72.884867 0.000002 0.000002 -0.000001 -6.443153 23.132633 -76.210213 0.012873 0.975913 -51.002969 -0.000001 -0.000001 0.000001 -17.098969 22.128976 -43.123195 0.019719 0.026991 -78.662893 0.000002 -0.000002 -0.000002 0.000002 0.000001 -0.000002 0.000002 0.000001 -0.000002 0.000002 0.000001 -0.000002 0.000000 -0.000001 0.000000 0.000000 -0.000001 0.000000 0.000000 -0.000001 0.000000 -0.000002 -0.000001 0.000000 13.916942 27.241113 -23.493025 -43.130090 -5.388803 84.783562 -0.000004 58.102869 5.792446 -18.233607 16.107459 8.608040 9.347170 2.810545 -11.364511 16.169054 -43.266004 15.843566 -0.000001 0.000000 0.000001 17.076803 -0.396556 31.924345 -0.204388 -0.284211 112.811578 -0.000000 0.000000 -0.000001 9.205475 -5.035878 102.738094 0.014966 -0.019206 61.018519 0.000001 0.000002 -0.000000 5.569137 -8.935227 107.329094 0.547988 -0.005769 41.263714 0.000000 -0.000003 0.000000 6.511258 -17.148266 98.228010 0.007399 -0.015744 43.845740 0.000000 0.000003 0.000000 0.000001 0.000000 0.000001 -0.000001 -0.000003 -0.000000 0.000001 0.000000 0.000001 0.000000 -0.000001 0.000000 0.000000 -0.000001 0.000001 0.000000 -0.000001 0.000000 0.000000 -0.000001 0.000000 0.000001 -0.000000 0.000000 0.000001 -0.000000 0.000000 0.000001 -0.000000 0.000000 0.000001 -0.000000 0.000000 0.000001 -0.000000 0.000000 0.000001 -0.000000 0.000000 0.000001 -0.000000 0.000000 0.000000 -0.000001 0.000000 0.000000 -0.000000 -0.000000 
-1.734413 90.161850 2.684865 4.062352 -19.374175 0.863987 0.000000 0.000002 -0.000000 -37.050201 4.795780 13.025261 34.994829 4.775882 1.764754 -0.875410 0.308760 -8.491762 -0.000000 -0.000000 0.000000 -0.000000 0.000000 0.000001 -15.025318 -16.591049 -17.498784 35.774799 -10.949090 5.677121 -19.407095 -2.895032 12.912386 0.000000 0.000004 -0.000000 0.000002 0.000000 -0.000002 22.336595 3.697353 -3.480937 3.896268 1.380186 -0.461092 3.864888 1.489590 -0.479738 -2.333200 0.454512 0.173688 -2.333201 0.454507 0.173691 -0.000001 0.000001 -0.000000 -2.333142 0.454508 0.173690 -2.333190 0.454514 0.173688 -0.000001 -0.000000 0.000000 -0.000001 0.000001 -0.000000 6.603619 -22.415638 7.305569 -35.571526 -2.492603 -78.579271 0.001849 -43.691675 -12.037142 -13.480488 -3.681325 -12.457997 -7.471932 1.860686 -7.166925 30.987001 27.310534 -4.510878 0.000005 0.000002 -0.000001 -4.707372 11.366698 -75.214453 -0.816406 3.073988 -46.874615 0.000001 -0.000001 -0.000001 1.623366 16.580921 -84.691306 0.018002 0.022026 -72.884860 -0.000000 -0.000001 -0.000000 -6.443143 23.132628 -76.210213 0.012873 0.975917 -51.002973 -0.000000 -0.000002 0.000000 -17.098964 22.128976 -43.123198 0.019719 0.026992 -78.662893 -0.000000 -0.000002 -0.000001 -0.000002 -0.000001 0.000000 -0.000002 -0.000001 0.000000 -0.000003 -0.000000 0.000001 0.000000 0.000000 -0.000000 0.000000 0.000000 -0.000000 0.000000 0.000000 -0.000000 -0.000001 0.000000 -0.000000 10.534717 24.991065 -14.162597 -42.755587 0.033458 77.897303 0.000035 58.105908 6.899570 -25.194048 15.811618 4.632990 9.347173 2.810547 -11.364510 16.169047 -43.266001 15.843566 -0.000000 -0.000001 -0.000001 17.076803 -0.396554 31.924349 -0.204387 -0.284207 112.811578 0.000000 0.000001 -0.000001 9.205475 -5.035881 102.738094 0.014964 -0.019206 61.018513 0.000001 -0.000002 -0.000000 5.569140 -8.935226 107.329094 0.547995 -0.005769 41.263714 -0.000000 0.000001 0.000001 6.511259 -17.148264 98.228010 0.007396 -0.015744 43.845744 0.000001 0.000003 -0.000003 -0.000000 0.000000 0.000003 -0.000001 0.000003 0.000000 -0.000001 -0.000000 0.000001 0.000001 0.000000 0.000000 0.000001 0.000000 -0.000000 0.000001 0.000000 0.000000 0.000001 -0.000000 -0.000000 0.000001 -0.000001 0.000000 0.000001 -0.000001 0.000000 0.000001 -0.000001 0.000000 0.000001 -0.000001 0.000000 0.000001 -0.000001 0.000000 0.000001 -0.000001 0.000000 0.000001 -0.000001 0.000000 0.000001 -0.000002 0.000000 0.000000 0.000002 -0.000000 
-2.675015 90.267929 2.852460 1.392028 -25.943770 -1.126838 -0.000000 0.000001 -0.000000 -33.669059 6.804500 16.744241 38.653635 7.320326 3.246169 -4.924520 0.999681 -11.618943 0.000000 0.000000 0.000000 0.000001 0.000000 0.000000 -14.112826 -28.136928 -17.751129 37.423983 -15.292339 7.868408 -19.735738 -2.186735 10.515104 0.000000 -0.000000 0.000000 0.000000 -0.000000 0.000000 20.200874 4.139930 -5.651299 4.475959 1.622702 0.350113 4.411316 1.806489 0.306617 -1.914549 0.840291 -0.086507 -1.914546 0.840285 -0.086507 0.000000 -0.000001 0.000000 -1.914541 0.840280 -0.086507 -1.914622 0.840307 -0.086511 0.000001 0.000000 -0.000000 0.000000 -0.000001 0.000000 5.047394 -24.425168 5.037802 -35.375291 -11.530338 -70.307836 0.003481 -48.381163 -19.230024 -24.214197 2.117005 -1.935341 -7.471934 1.860686 -7.166919 30.987001 27.310535 -4.510878 0.000002 -0.000003 -0.000005 -4.707376 11.366700 -75.214453 -0.816405 3.073983 -46.874615 0.000001 -0.000001 -0.000002 1.623367 16.580930 -84.691306 0.018001 0.022019 -72.884853 0.000001 -0.000001 0.000001 -6.443144 23.132637 -76.210213 0.012873 0.975912 -51.002979 0.000002 -0.000002 0.000001 -17.098965 22.128976 -43.123195 0.019714 0.026987 -78.662893 0.000001 -0.000002 -0.000002 0.000001 -0.000001 0.000001 0.000001 -0.000001 0.000001 -0.000000 -0.000001 0.000002 -0.000002 0.000000 0.000001 -0.000002 -0.000001 0.000001 -0.000002 0.000000 0.000001 -0.000003 0.000001 0.000001 7.497179 19.998736 -5.565329 -43.249717 5.939009 71.250962 0.000115 59.357930 7.883626 -32.025258 10.995350 6.819342 9.347170 2.810548 -11.364511 16.169049 -43.266007 15.843565 -0.000000 -0.000002 -0.000001 17.076800 -0.396553 31.924349 -0.204388 -0.284209 112.811584 0.000001 -0.000001 0.000000 9.205474 -5.035877 102.738094 0.014966 -0.019206 61.018513 0.000000 0.000000 0.000001 5.569138 -8.935224 107.329087 0.547991 -0.005773 41.263714 0.000001 0.000001 0.000002 6.511254 -17.148261 98.228010 0.007399 -0.015737 43.845740 0.000001 -0.000005 -0.000003 0.000001 0.000000 -0.000000 0.000000 -0.000002 0.000000 0.000001 0.000000 -0.000000 0.000000 0.000003 -0.000000 0.000000 0.000003 0.000000 0.000000 0.000003 -0.000000 0.000000 0.000003 0.000000 0.000000 0.000000 0.000001 0.000000 0.000000 0.000001 0.000000 0.000000 0.000001 0.000000 0.000000 0.000001 0.000000 0.000000 0.000001 0.000000 0.000000 0.000001 0.000000 0.000000 0.000001 -0.000002 0.000000 -0.000000 -0.000000 0.000001 -0.000000 
-3.859479 89.767578 3.176401 -2.823117 -34.825024 -5.794713 -0.000000 0.000001 0.000000 -30.463733 10.654810 23.375221 45.119625 9.399641 5.356631 -11.121064 2.250771 -16.217879 0.000000 0.000000 -0.000000 0.000000 -0.000000 0.000001 -10.950405 -33.938746 -14.674074 39.269613 -20.146263 7.760977 -19.703938 -2.363839 11.195979 0.000000 -0.000000 -0.000000 -0.000001 -0.000000 -0.000000 16.012736 4.960682 -6.289823 5.806342 1.765485 1.506105 5.706279 2.032084 1.451646 -1.554596 1.232067 -0.488996 -1.554589 1.232065 -0.488996 0.000001 0.000001 0.000000 -1.554511 1.232058 -0.488996 -1.554664 1.232076 -0.488997 -0.000002 -0.000001 0.000001 0.000001 0.000001 0.000000 3.176507 -25.631762 2.592704 -35.618627 -24.999804 -61.814988 0.002381 -52.066272 -23.772852 -43.747915 2.630536 9.982920 -7.471931 1.860684 -7.166922 30.987001 27.310528 -4.510881 -0.000000 0.000000 -0.000004 -4.707371 11.366698 -75.214453 -0.816405 3.073990 -46.874618 -0.000001 0.000004 0.000001 1.623370 16.580923 -84.691313 0.017996 0.022017 -72.884867 -0.000000 -0.000001 -0.000001 -6.443145 23.132628 -76.210206 0.012875 0.975919 -51.002976 0.000001 -0.000002 -0.000001 -17.098964 22.128973 -43.123198 0.019714 0.026993 -78.662893 0.000001 0.000002 0.000001 -0.000001 0.000001 0.000001 -0.000001 0.000001 0.000001 -0.000001 0.000001 0.000001 0.000003 -0.000001 0.000003 0.000003 -0.000002 0.000001 0.000003 -0.000001 0.000003 0.000001 -0.000001 0.000002 6.674112 14.738068 -1.795395 -49.138259 11.692886 67.252440 -0.001314 56.753145 9.317769 -36.629775 4.047591 10.794194 9.347172 2.810550 -11.364512 16.169047 -43.266001 15.843568 -0.000001 0.000000 -0.000002 17.076798 -0.396554 31.924349 -0.204387 -0.284210 112.811578 0.000000 -0.000001 -0.000002 9.205473 -5.035878 102.738094 0.014963 -0.019205 61.018519 -0.000000 -0.000001 0.000001 5.569139 -8.935224 107.329094 0.547998 -0.005769 41.263717 -0.000001 -0.000001 -0.000001 6.511259 -17.148262 98.228010 0.007397 -0.015739 43.845747 -0.000001 0.000002 0.000001 0.000000 0.000001 -0.000001 -0.000001 -0.000000 -0.000000 0.000000 0.000001 -0.000001 0.000000 0.000001 -0.000001 -0.000000 0.000001 -0.000001 0.000000 0.000001 -0.000001 -0.000000 0.000001 -0.000002 -0.000001 0.000001 -0.000000 -0.000001 0.000001 -0.000000 -0.000001 0.000001 -0.000000 -0.000001 0.000001 -0.000000 -0.000001 0.000001 -0.000000 -0.000001 0.000001 -0.000000 -0.000001 0.000001 -0.000000 0.000001 0.000000 -0.000000 -0.000000 0.000001 0.000000 
